<?xml version="1.0" encoding="UTF-8" standalone="no"?>
<!-- Created with Inkscape (http://www.inkscape.org/) -->

<svg
   xmlns:dc="http://purl.org/dc/elements/1.1/"
   xmlns:cc="http://creativecommons.org/ns#"
   xmlns:rdf="http://www.w3.org/1999/02/22-rdf-syntax-ns#"
   xmlns:svg="http://www.w3.org/2000/svg"
   xmlns="http://www.w3.org/2000/svg"
   xmlns:sodipodi="http://sodipodi.sourceforge.net/DTD/sodipodi-0.dtd"
   xmlns:inkscape="http://www.inkscape.org/namespaces/inkscape"
   version="1.1"
   id="svg141"
   width="808"
   height="810"
   viewBox="0 0 808 810"
   sodipodi:docname="nje.svg"
   inkscape:version="0.92.1 r15371">
  <metadata
     id="metadata147">
    <rdf:RDF>
      <cc:Work
         rdf:about="">
        <dc:format>image/svg+xml</dc:format>
        <dc:type
           rdf:resource="http://purl.org/dc/dcmitype/StillImage" />
        <dc:title></dc:title>
      </cc:Work>
    </rdf:RDF>
  </metadata>
  <defs
     id="defs145" />
  <sodipodi:namedview
     pagecolor="#ffffff"
     bordercolor="#666666"
     borderopacity="1"
     objecttolerance="10"
     gridtolerance="10"
     guidetolerance="10"
     inkscape:pageopacity="0"
     inkscape:pageshadow="2"
     inkscape:window-width="1920"
     inkscape:window-height="972"
     id="namedview143"
     showgrid="false"
     inkscape:zoom="0.69488518"
     inkscape:cx="137.27565"
     inkscape:cy="515.9473"
     inkscape:window-x="0"
     inkscape:window-y="30"
     inkscape:window-maximized="1"
     inkscape:current-layer="svg141" />
  <path
     style="fill:#000000"
     d="m -865.99015,635.14462 c -1.91935,-31.89472 -22.01774,-61.73947 -51.68162,-76.74371 -11.21777,-5.67403 -25.76581,-9.50629 -36.08786,-9.50629 h -5.93462 v -61.85451 -61.85452 l 12.25,-0.55187 c 14.71644,-0.66298 29.07316,-3.46275 45.25,-8.82442 54.00806,-17.90046 96.51422,-60.40662 114.41468,-114.41468 7.45555,-22.49437 8.52919,-29.73236 8.52919,-57.5 0,-21.74787 -0.25566,-25.67949 -2.27595,-35 -10.90481,-50.30892 -38.15335,-90.15221 -80.66792,-117.954063 -24.13566,-15.7832 -57.06366,-26.51523 -85.25,-27.78504 l -12.25,-0.55187 V 0.74912686 -61.105386 h 5.93462 c 19.35012,0 42.84222,-10.24976 59.40722,-25.919764 16.71159,-15.80867 28.65816,-41.71497 28.65816,-62.14561 v -5.93463 h 61.85451 61.85452 l 0.55187,12.25 c 1.29364,28.71532 12.06717,61.35227 28.47133,86.250004 27.55606,41.823773 67.32712,68.842933 117.26777,79.667923 9.32051,2.02029 13.25213,2.27595 35,2.27595 21.74787,0 25.67949,-0.25566 35,-2.27595 49.94066,-10.82499 89.71176,-37.84415 117.26776,-79.667923 16.4042,-24.897734 27.1777,-57.534684 28.4713,-86.250004 l 0.5519,-12.25 h 61.8545 61.8545 v 5.93463 c 0,10.32204 3.8323,24.87008 9.5063,36.08785 15.0043,29.663883 44.849,49.762274 76.7437,51.681614 l 9.75,0.58674 V 0.91281686 62.640177 l -9.7158,0.18111 c -22.2531,0.41481 -49.1226,7.14277 -71.0581,17.79247 -45.0837,21.888243 -78.8511,60.803603 -94.0611,108.401253 -6.6019,20.65974 -7.6088,27.92208 -7.6088,54.87961 0,26.95753 1.0069,34.21987 7.6088,54.87961 22.8179,71.40536 88.5741,122.60747 161.585,125.82086 l 13.25,0.58316 v 61.70059 61.70059 l -6.75,0.2097 c -46.8058,1.45416 -87.9013,42.54965 -89.3554,89.35549 l -0.2097,6.75 h -61.7006 -61.7006 l -0.5832,-13.25 c -3.2134,-73.01099 -54.4155,-138.76716 -125.82085,-161.58506 -20.65974,-6.60192 -27.92208,-7.60881 -54.87961,-7.60881 -26.95753,0 -34.21987,1.00689 -54.87961,7.60881 -47.59765,15.21004 -86.51301,48.97739 -108.40125,94.06113 -10.6497,21.93544 -17.37766,48.805 -17.79247,71.05808 l -0.18111,9.71585 h -61.72736 -61.72737 z m 100.27758,-4 c -0.0484,-12.54927 -4.93116,-36.41451 -10.9971,-53.75 -4.02516,-11.50326 -13.15709,-29.89613 -20.17156,-40.62809 -35.21536,-49.30696 -88.19141,-83.07245 -146.3248,-87.5503 l -9.48822,-0.62326 v 44.9505 44.95049 l 8.572,1.23938 c 15.23178,2.20229 29.21376,7.63329 42.928,16.67446 7.87909,5.19433 22.08471,19.34704 27.46651,27.36421 9.0463,13.47613 15.87993,31.45627 17.63682,46.4047 l 0.67203,5.71791 h 44.86232 44.86232 l -0.0183,-4.75 z m 18.34563,-4.08032 c 1.42092,-20.01812 8.05506,-44.51542 17.3936,-64.22784 25.63459,-54.11124 74.5385,-92.02964 134.27909,-104.11535 10.09907,-2.04308 14.36276,-2.32649 35,-2.32649 20.63724,0 24.90093,0.28341 35,2.32649 59.74056,12.08571 108.64446,50.00411 134.27906,104.11535 9.3386,19.71242 15.9727,44.20972 17.3936,64.22784 l 0.6268,8.83032 h 3.8503 3.8502 v -9.62436 c 0,-24.89677 -13.0227,-63.87969 -30.024,-89.87564 -29.3481,-44.87483 -73.3029,-74.76349 -126.82986,-86.2425 -11.88049,-2.5478 -14.18991,-2.71199 -38.1461,-2.71199 -23.95619,0 -26.26561,0.16419 -38.1461,2.71199 -30.86059,6.61814 -58.06978,19.04205 -82.3539,37.60335 -15.02652,11.48536 -33.11366,31.26555 -44.47597,48.63915 -17.00132,25.99595 -30.02403,64.97887 -30.02403,89.87564 v 9.62436 h 3.85026 3.85025 z m 481.67265,6.28816 c 0,-1.39819 0.7156,-6.01069 1.5901,-10.25 8.7379,-42.35665 40.2611,-73.8799 82.6178,-82.61777 4.2393,-0.87454 8.8518,-1.59007 10.25,-1.59007 h 2.5421 v -45 -45 l -4.75,0.0183 c -7.1704,0.0277 -24.3028,2.66534 -35.1199,5.40703 -41.2057,10.444 -77.5515,33.74233 -104.8485,67.20985 -16.4676,20.19004 -30.0508,47.64499 -36.8562,74.49489 -2.7417,10.81708 -5.3794,27.94944 -5.407,35.11991 l -0.018,4.75002 h 45 45 z M -564.69425,394.89462 v -23 h -4.86901 c -7.22769,0 -20.62182,-2.56576 -30.86045,-5.91159 -38.6969,-12.64556 -69.71339,-43.66205 -82.35895,-82.35895 -3.34583,-10.23863 -5.91159,-23.63276 -5.91159,-30.86045 v -4.86901 h -23.14541 -23.14542 l 0.55604,9.75 c 1.17274,20.56394 7.29433,42.49869 17.79147,63.75 9.09017,18.40292 17.67299,30.26956 32.92338,45.51994 22.0039,22.00391 45.4546,35.99693 74.52143,44.46693 12.06953,3.51703 28.37963,6.33359 37.24851,6.43237 l 7.25,0.0808 z m 37.87961,20.04403 c 16.05177,-3.30129 28.35603,-7.56084 43.62035,-15.10071 18.403,-9.09017 30.2696,-17.67299 45.52,-32.92338 15.2504,-15.25038 23.8332,-27.11702 32.9234,-45.51994 10.4971,-21.25131 16.6187,-43.18606 17.7914,-63.75 l 0.5561,-9.75 h -23.1454 -23.1455 v 4.86901 c 0,7.22769 -2.5657,20.62182 -5.9115,30.86045 -12.6456,38.6969 -43.6621,69.71339 -82.359,82.35895 -10.23863,3.34583 -23.63276,5.91159 -30.86045,5.91159 h -4.86901 v 23.14541 23.14542 l 9.75,-0.55604 c 5.3625,-0.30581 14.42082,-1.51666 20.12961,-2.69076 z m -12.71553,-52.51341 c 22.07442,-3.84946 44.5213,-15.16082 61.76258,-31.12323 17.2894,-16.00691 31.4321,-42.32035 35.604,-66.24331 1.8846,-10.80707 1.8846,-31.52109 0,-42.32816 -3.8495,-22.07442 -15.1609,-44.5213 -31.1233,-61.7626 -16.0069,-17.28938 -42.32032,-31.43212 -66.24328,-35.60394 -10.80707,-1.88459 -31.52109,-1.88459 -42.32816,0 -22.07442,3.84946 -44.5213,15.16082 -61.7626,31.12323 -17.28938,16.00691 -31.43212,42.32035 -35.60394,66.24331 -1.88459,10.80707 -1.88459,31.52109 0,42.32816 3.84946,22.07442 15.16082,44.5213 31.12323,61.7626 15.73353,16.9941 42.15292,31.321 65.58581,35.56636 10.05325,1.82136 32.64345,1.84111 42.98566,0.0376 z M -688.69425,235.02561 c 0,-7.22769 2.56576,-20.62182 5.91159,-30.86045 12.64556,-38.6969 43.66205,-69.71339 82.35895,-82.35895 10.23863,-3.34583 23.63276,-5.91159 30.86045,-5.91159 h 4.86901 V 92.749207 69.603787 l -9.75,0.55604 c -20.56394,1.17274 -42.49869,7.29433 -63.75,17.79147 -18.40292,9.09017 -30.26956,17.672993 -45.51994,32.923383 -15.25039,15.25038 -23.83321,27.11702 -32.92338,45.51994 -10.49714,21.25131 -16.61873,43.18606 -17.79147,63.75 l -0.55604,9.75 h 23.14542 23.14541 z m 301.73476,-4.88099 c -1.1727,-20.56394 -7.2943,-42.49869 -17.7914,-63.75 -9.0902,-18.40292 -17.673,-30.26956 -32.9234,-45.51994 -15.2504,-15.25039 -27.117,-23.833213 -45.52,-32.923383 -21.25127,-10.49714 -43.18602,-16.61873 -63.74996,-17.79147 l -9.75,-0.55604 v 23.14542 23.145413 h 4.86901 c 7.22769,0 20.62182,2.56576 30.86045,5.91159 38.6969,12.64556 69.7134,43.66205 82.359,82.35895 3.3458,10.23863 5.9115,23.63276 5.9115,30.86045 v 4.86901 h 23.1455 23.1454 z M -522.0349,37.512177 c 40.06691,-8.55334 74.14651,-27.20139 101.90581,-55.76192 15.9794,-16.44071 26.5083,-31.48428 36.4424,-52.068683 10.8373,-22.455842 17.9924,-49.562584 17.9924,-68.162604 v -9.62436 h -4 -4 v 4.62166 c 0,5.74969 -2.6177,23.86882 -4.6055,31.87834 -3.2714,13.18142 -8.9544,28.338062 -15.4969,41.330544 -17.9962,35.737603 -46.3294,64.0708429 -82.067,82.066993 -28.09766,14.14894 -53.22097,20.10247 -84.83056,20.10247 -31.60959,0 -56.7329,-5.95353 -84.83055,-20.10247 -48.72579,-24.53654 -84.14699,-69.336793 -97.56392,-123.397537 -1.98782,-8.00952 -4.60553,-26.12865 -4.60553,-31.87834 v -4.62166 h -4 -4 v 9.62436 c 0,18.60002 7.15519,45.706762 17.99244,68.162604 10.47438,21.703933 23.00762,39.114843 40.15192,55.778163 30.07336,29.22968 65.92564,47.06515 108.35564,53.9038 6.56544,1.05819 15.22164,1.35506 32,1.09748 20.12088,-0.3089 24.5221,-0.67804 35.15935,-2.94884 z m -399.42113,-2.05444 c 49.05342,-9.96932 91.03348,-37.2564501 120.38491,-78.25046 19.64328,-27.435013 32.95275,-63.816797 35.05526,-95.824447 l 0.62326,-9.48822 h -44.9505 -44.95049 l -1.23938,8.572 c -6.48928,44.882074 -42.70721,81.100004 -87.58928,87.589287 l -8.572,1.23938 V -5.7542331 39.196267 l 9.48822,-0.62326 c 5.21852,-0.34279 15.00602,-1.74466 21.75,-3.11527 z M -168.69429,-5.9677031 V -50.830023 l -5.7179,-0.67203 c -14.9484,-1.75689 -32.9285,-8.590523 -46.4047,-17.636833 -8.0171,-5.38179 -22.1698,-19.587413 -27.3642,-27.466503 -9.0411,-13.714241 -14.4721,-27.696221 -16.6744,-42.928001 l -1.2394,-8.572 h -44.9505 -44.9505 l 0.6233,9.48822 c 1.7145,26.10117 11.6839,57.427124 26.0379,81.816704 19.122,32.491013 47.4953,58.8603329 81.5124,75.755233 23.0142,11.43024 52.6697,19.44543 73.378,19.8324 l 5.75,0.10745 z"
     id="path155"
     inkscape:connector-curvature="0"
     sodipodi:nodetypes="ssscccssssssscccssscccssssscccccscccccscssssccccsccccssssscccscscccccssscccccccsssscccccssssssssccccccssccccccscccccssssscccsssscccscscccccscssccccsccccssssssssccccsscccssssscccsccscscccsscsccccccscccsccssssscccssssssscccccsscccssccccccccccccscccc" />
</svg>
